<?xml version="1.0" encoding="UTF-8" standalone="no"?>
<!-- Created with Inkscape (http://www.inkscape.org/) -->

<svg
   width="90mm"
   height="90mm"
   viewBox="0 0 90 90"
   version="1.1"
   id="svg1"
   xml:space="preserve"
   xmlns="http://www.w3.org/2000/svg"
   xmlns:svg="http://www.w3.org/2000/svg"><defs
     id="defs1" /><g
     id="layer1"
     transform="matrix(1.0350842,0,0,1.0022292,-64.541173,-115.88111)"><path
       style="fill:#ffffff"
       d="m 121.04179,204.91145 c -11.35865,-2.48708 -16.65887,-10.08369 -16.2529,-23.29469 0.23069,-7.50727 0.16842,-7.28416 1.87263,-6.70882 5.71903,1.93073 12.333,-0.57517 15.28913,-5.79274 0.9346,-1.64956 0.73965,-1.60509 1.97854,-0.45136 2.14313,1.99582 5.34962,3.09783 11.85483,4.07425 8.57423,1.28698 11.8261,3.86533 13.2294,10.48934 2.64684,12.49402 -13.34049,24.88763 -27.97163,21.68402 z M 75.184348,186.12169 c -21.515778,-4.6839 -14.092791,-42.58149 8.344463,-42.60213 8.135115,-0.007 20.899819,7.30818 18.007399,10.32034 -3.918355,4.08056 -4.742567,9.80058 -2.13756,14.83463 0.98937,1.91191 0.98937,1.91191 -0.698296,2.46593 -3.098842,1.01727 -4.940372,2.51199 -8.506431,6.90443 -6.292962,7.75125 -9.234365,9.33405 -15.009575,8.0768 z m 33.180942,-15.08945 c -9.565347,-3.07002 -7.47352,-16.96428 2.54789,-16.92354 7.44103,0.0302 11.2189,8.80702 6.23447,14.48397 -1.93101,2.19929 -6.005,3.33097 -8.78236,2.43957 z m 15.00358,-11.04517 c -0.91786,-5.74508 -7.85719,-10.93669 -13.57155,-10.15345 -1.19159,0.16333 -1.19159,0.16333 -0.96391,-0.82781 0.12523,-0.54512 0.21826,-2.36035 0.20674,-4.03384 -0.0228,-3.31195 0.11522,-2.81217 -3.17875,-11.50938 -7.819747,-20.64675 24.35205,-24.91854 34.57274,-4.59059 6.30899,12.54795 2.02656,22.80662 -12.6342,30.26557 -4.57052,2.32534 -4.20643,2.25554 -4.43107,0.8495 z"
       id="path1" /></g></svg>
